<?xml version="1.0" encoding="utf-8" standalone="no"?>
<?xml-stylesheet href="../../CSS/style.css" type="text/css"?>
<!--SVG file generated on: 8 September 2013 at 21:04:27 using SAXON version EE 9.5.0.2-->
<!DOCTYPE svg
  PUBLIC "-//W3C//DTD SVG 1.1//EN" "http://www.w3.org/Graphics/SVG/1.1/DTD/svg11.dtd">
<svg xmlns="http://www.w3.org/2000/svg"
     version="1.1"
     x="0"
     y="0"
     width="297mm"
     height="210mm"
     viewBox="0 0 297 210"
     preserveAspectRatio="xMidYMid meet">
   <title>Collation diagram quire 9</title>
   <defs>
      <filter id="f1" filterUnits="userSpaceOnUse">
         <feGaussianBlur in="SourceGraphic" stdDeviation="1"/>
      </filter>
   </defs>
   <desc>Collation diagram quire 9</desc>
   <svg x="20" y="20">
      <desc>Bifolium #1</desc>
      <g>
         <g class="leaf">
            <path stroke-linecap="round" d="M66,9 A48,48 0 0,0 19,57"/>
            <path d="M70,9 L66,9"/>
         </g>
         <g class="leaf">
            <path stroke-linecap="round" d="M66,105 A48,48 0 0,1 19,57"/>
            <path d="M70,105 L66,105"/>
         </g>
      </g>
      <desc>Bifolium #2</desc>
      <g>
         <g class="leaf">
            <path stroke-linecap="round" d="M66,15 A42,42 0 0,0 25,57"/>
            <path d="M70,15 L66,15"/>
         </g>
         <g class="leaf">
            <path stroke-linecap="round" d="M66,99 A42,42 0 0,1 25,57"/>
            <path d="M70,99 L66,99"/>
         </g>
      </g>
      <desc>Bifolium #3</desc>
      <g>
         <g class="leaf">
            <path stroke-linecap="round" d="M66,21 A36,36 0 0,0 31,57"/>
            <path d="M70,21 L66,21"/>
         </g>
         <g class="leaf">
            <path stroke-linecap="round" d="M66,93 A36,36 0 0,1 31,57"/>
            <path d="M70,93 L66,93"/>
         </g>
      </g>
      <desc>Bifolium #4</desc>
      <g>
         <g class="leaf">
            <path stroke-linecap="round" d="M66,27 A30,30 0 0,0 37,57"/>
            <path d="M70,27 L66,27"/>
         </g>
         <g class="leaf">
            <path stroke-linecap="round" d="M66,87 A30,30 0 0,1 37,57"/>
            <path d="M70,87 L66,87"/>
         </g>
      </g>
      <desc>Bifolium #5</desc>
      <g>
         <g class="leaf">
            <path stroke-linecap="round" d="M66,33 A24,24 0 0,0 43,57"/>
            <path d="M70,33 L66,33"/>
         </g>
         <g class="leaf">
            <path stroke-linecap="round" d="M66,81 A24,24 0 0,1 43,57"/>
            <path d="M70,81 L66,81"/>
         </g>
      </g>
      <desc>Bifolium #6</desc>
      <g>
         <g class="leaf">
            <path stroke-linecap="round" d="M66,39 A18,18 0 0,0 49,57"/>
            <path d="M70,39 L66,39"/>
         </g>
         <g class="leaf">
            <path stroke-linecap="round" d="M66,75 A18,18 0 0,1 49,57"/>
            <path d="M70,75 L66,75"/>
         </g>
      </g>
      <desc>Bifolium #7</desc>
      <g>
         <g class="leaf">
            <path stroke-linecap="round" d="M66,45 A12,12 0 0,0 55,57"/>
            <path d="M70,45 L66,45"/>
         </g>
         <g class="leaf">
            <path stroke-linecap="round" d="M66,69 A12,12 0 0,1 55,57"/>
            <path d="M70,69 L66,69"/>
         </g>
      </g>
      <desc>Bifolium #8</desc>
      <g>
         <g class="leaf">
            <path stroke-linecap="round" d="M66,51 A6,6 0 0,0 61,57"/>
            <path d="M70,51 L66,51"/>
         </g>
         <g class="leaf">
            <path stroke-linecap="round" d="M66,63 A6,6 0 0,1 61,57"/>
            <path d="M70,63 L66,63"/>
         </g>
      </g>
   </svg>
</svg>
