<?xml version="1.0" encoding="utf-8" standalone="no"?>
<?xml-stylesheet href="../../CSS/style.css" type="text/css"?>
<!--SVG file generated on: 8 September 2013 at 21:04:34 using SAXON version EE 9.5.0.2-->
<!DOCTYPE svg
  PUBLIC "-//W3C//DTD SVG 1.1//EN" "http://www.w3.org/Graphics/SVG/1.1/DTD/svg11.dtd">
<svg xmlns="http://www.w3.org/2000/svg"
     version="1.1"
     x="0"
     y="0"
     width="297mm"
     height="210mm"
     viewBox="0 0 297 210"
     preserveAspectRatio="xMidYMid meet">
   <title>Collation diagram quire 8</title>
   <defs>
      <filter id="f1" filterUnits="userSpaceOnUse">
         <feGaussianBlur in="SourceGraphic" stdDeviation="1"/>
      </filter>
   </defs>
   <desc>Collation diagram quire 8</desc>
   <svg x="20" y="20">
      <desc>Bifolium #1</desc>
      <g>
         <g class="leaf">
            <path stroke-linecap="round" d="M54,9 A36,36 0 0,0 19,45"/>
            <path d="M70,9 L54,9"/>
         </g>
         <g class="leaf">
            <path stroke-linecap="round" d="M54,81 A36,36 0 0,1 19,45"/>
            <path d="M70,81 L54,81"/>
         </g>
      </g>
      <desc>Bifolium #2</desc>
      <g>
         <g class="leaf">
            <path stroke-linecap="round" d="M54,15 A30,30 0 0,0 25,45"/>
            <path d="M70,15 L54,15"/>
         </g>
         <g class="leaf">
            <path stroke-linecap="round" d="M54,75 A30,30 0 0,1 25,45"/>
            <path d="M70,75 L54,75"/>
         </g>
      </g>
      <desc>Bifolium #3</desc>
      <g>
         <g class="leaf">
            <path stroke-linecap="round" d="M54,21 A24,24 0 0,0 31,45"/>
            <path d="M70,21 L54,21"/>
         </g>
         <g class="leaf">
            <path stroke-linecap="round" d="M54,69 A24,24 0 0,1 31,45"/>
            <path d="M70,69 L54,69"/>
         </g>
      </g>
      <desc>Bifolium #4</desc>
      <g>
         <g class="leaf">
            <path stroke-linecap="round" d="M54,27 A18,18 0 0,0 37,45"/>
            <path d="M70,27 L54,27"/>
         </g>
         <g class="leaf">
            <path stroke-linecap="round" d="M54,63 A18,18 0 0,1 37,45"/>
            <path d="M70,63 L54,63"/>
         </g>
      </g>
      <desc>Bifolium #5</desc>
      <g>
         <g class="leaf">
            <path stroke-linecap="round" d="M54,33 A12,12 0 0,0 43,45"/>
            <path d="M70,33 L54,33"/>
         </g>
         <g class="leaf">
            <path stroke-linecap="round" d="M54,57 A12,12 0 0,1 43,45"/>
            <path d="M70,57 L54,57"/>
         </g>
      </g>
      <desc>Bifolium #6</desc>
      <g>
         <g class="leaf">
            <path stroke-linecap="round" d="M54,39 A6,6 0 0,0 49,45"/>
            <path d="M70,39 L54,39"/>
         </g>
         <g class="leaf">
            <path stroke-linecap="round" d="M54,51 A6,6 0 0,1 49,45"/>
            <path d="M70,51 L54,51"/>
         </g>
      </g>
   </svg>
</svg>
