<?xml version="1.0" encoding="utf-8" standalone="no"?>
<?xml-stylesheet href="../../CSS/style.css" type="text/css"?>
<!--SVG file generated on: 8 September 2013 at 21:04:28 using SAXON version EE 9.5.0.2-->
<!DOCTYPE svg
  PUBLIC "-//W3C//DTD SVG 1.1//EN" "http://www.w3.org/Graphics/SVG/1.1/DTD/svg11.dtd">
<svg xmlns="http://www.w3.org/2000/svg"
     version="1.1"
     x="0"
     y="0"
     width="297mm"
     height="210mm"
     viewBox="0 0 297 210"
     preserveAspectRatio="xMidYMid meet">
   <title>Collation diagram quire 21</title>
   <defs>
      <filter id="f1" filterUnits="userSpaceOnUse">
         <feGaussianBlur in="SourceGraphic" stdDeviation="1"/>
      </filter>
   </defs>
   <desc>Collation diagram quire 21</desc>
   <svg x="20" y="20">
      <desc>Bifolium #1</desc>
      <g>
         <g class="leaf">
            <path stroke-linecap="round" d="M48,9 A30,30 0 0,0 19,39"/>
            <path d="M70,9 L48,9"/>
         </g>
         <g class="leaf">
            <path stroke-linecap="round" d="M48,69 A30,30 0 0,1 19,39"/>
            <path d="M70,69 L48,69"/>
         </g>
      </g>
      <desc>Bifolium #2</desc>
      <g>
         <g class="leaf">
            <path stroke-linecap="round" d="M48,15 A24,24 0 0,0 25,39"/>
            <path d="M70,15 L48,15"/>
         </g>
         <g class="leaf">
            <path stroke-linecap="round" d="M48,63 A24,24 0 0,1 25,39"/>
            <path d="M70,63 L48,63"/>
         </g>
      </g>
      <desc>Bifolium #3</desc>
      <g>
         <g class="leaf">
            <path stroke-linecap="round" d="M48,21 A18,18 0 0,0 31,39"/>
            <path d="M70,21 L48,21"/>
         </g>
         <g class="leaf">
            <path stroke-linecap="round" d="M48,57 A18,18 0 0,1 31,39"/>
            <path d="M70,57 L48,57"/>
         </g>
      </g>
      <desc>Bifolium #4</desc>
      <g>
         <g class="leaf">
            <path stroke-linecap="round" d="M48,27 A12,12 0 0,0 37,39"/>
            <path d="M70,27 L48,27"/>
         </g>
         <g class="leaf">
            <path stroke-linecap="round" d="M48,51 A12,12 0 0,1 37,39"/>
            <path d="M70,51 L48,51"/>
         </g>
      </g>
      <desc>Bifolium #5</desc>
      <g>
         <g class="leaf">
            <path stroke-linecap="round" d="M48,33 A6,6 0 0,0 43,39"/>
            <path d="M70,33 L48,33"/>
         </g>
         <g class="leaf">
            <path stroke-linecap="round" d="M48,45 A6,6 0 0,1 43,39"/>
            <path d="M70,45 L48,45"/>
         </g>
      </g>
   </svg>
</svg>
