<?xml version="1.0" encoding="utf-8" standalone="no"?>
<?xml-stylesheet href="../../CSS/style.css" type="text/css"?>
<!--SVG file generated on: 8 September 2013 at 21:04:27 using SAXON version EE 9.5.0.2-->
<!DOCTYPE svg
  PUBLIC "-//W3C//DTD SVG 1.1//EN" "http://www.w3.org/Graphics/SVG/1.1/DTD/svg11.dtd">
<svg xmlns="http://www.w3.org/2000/svg"
     version="1.1"
     x="0"
     y="0"
     width="297mm"
     height="210mm"
     viewBox="0 0 297 210"
     preserveAspectRatio="xMidYMid meet">
   <title>Collation diagram quire 10</title>
   <defs>
      <filter id="f1" filterUnits="userSpaceOnUse">
         <feGaussianBlur in="SourceGraphic" stdDeviation="1"/>
      </filter>
   </defs>
   <desc>Collation diagram quire 10</desc>
   <svg x="20" y="20">
      <desc>Bifolium #1</desc>
      <g>
         <g class="leaf">
            <path stroke-linecap="round" d="M60,9 A42,42 0 0,0 19,51"/>
            <path d="M70,9 L60,9"/>
         </g>
         <g class="leaf">
            <path stroke-linecap="round" d="M60,93 A42,42 0 0,1 19,51"/>
            <path d="M70,93 L60,93"/>
         </g>
      </g>
      <desc>Bifolium #2</desc>
      <g>
         <g class="leaf">
            <path stroke-linecap="round" d="M60,15 A36,36 0 0,0 25,51"/>
            <path d="M70,15 L60,15"/>
         </g>
         <g class="leaf">
            <path stroke-linecap="round" d="M60,87 A36,36 0 0,1 25,51"/>
            <path d="M70,87 L60,87"/>
         </g>
      </g>
      <desc>Bifolium #3</desc>
      <g>
         <g class="leaf">
            <path stroke-linecap="round" d="M60,21 A30,30 0 0,0 31,51"/>
            <path d="M70,21 L60,21"/>
         </g>
         <g class="leaf">
            <path stroke-linecap="round" d="M60,81 A30,30 0 0,1 31,51"/>
            <path d="M70,81 L60,81"/>
         </g>
      </g>
      <desc>Missing leaf #3</desc>
      <g>
         <g class="ghostLeaf">
            <path stroke-linecap="round" d="M60,21 A30,30 0 0,0 31,51"/>
            <path d="M70,21 L60,21"/>
         </g>
      </g>
      <desc>Bifolium #4</desc>
      <g>
         <g class="leaf">
            <path stroke-linecap="round" d="M60,27 A24,24 0 0,0 37,51"/>
            <path d="M70,27 L60,27"/>
         </g>
         <g class="leaf">
            <path stroke-linecap="round" d="M60,75 A24,24 0 0,1 37,51"/>
            <path d="M70,75 L60,75"/>
         </g>
      </g>
      <desc>Bifolium #5</desc>
      <g>
         <g class="leaf">
            <path stroke-linecap="round" d="M60,33 A18,18 0 0,0 43,51"/>
            <path d="M70,33 L60,33"/>
         </g>
         <g class="leaf">
            <path stroke-linecap="round" d="M60,69 A18,18 0 0,1 43,51"/>
            <path d="M70,69 L60,69"/>
         </g>
      </g>
      <desc>Missing leaf #10</desc>
      <g>
         <g class="ghostLeaf">
            <path stroke-linecap="round" d="M60,69 A18,18 0 0,1 43,51"/>
            <path d="M70,69 L60,69"/>
         </g>
      </g>
      <desc>Bifolium #6</desc>
      <g>
         <g class="leaf">
            <path stroke-linecap="round" d="M60,39 A12,12 0 0,0 49,51"/>
            <path d="M70,39 L60,39"/>
         </g>
         <g class="leaf">
            <path stroke-linecap="round" d="M60,63 A12,12 0 0,1 49,51"/>
            <path d="M70,63 L60,63"/>
         </g>
      </g>
      <desc>Bifolium #7</desc>
      <g>
         <g class="leaf">
            <path stroke-linecap="round" d="M60,45 A6,6 0 0,0 55,51"/>
            <path d="M70,45 L60,45"/>
         </g>
         <g class="leaf">
            <path stroke-linecap="round" d="M60,57 A6,6 0 0,1 55,51"/>
            <path d="M70,57 L60,57"/>
         </g>
      </g>
   </svg>
</svg>
