<?xml version="1.0" encoding="utf-8" standalone="no"?>
<?xml-stylesheet href="../../CSS/style.css" type="text/css"?>
<!--SVG file generated on: 8 September 2013 at 21:04:27 using SAXON version EE 9.5.0.2-->
<!DOCTYPE svg
  PUBLIC "-//W3C//DTD SVG 1.1//EN" "http://www.w3.org/Graphics/SVG/1.1/DTD/svg11.dtd">
<svg xmlns="http://www.w3.org/2000/svg"
     version="1.1"
     x="0"
     y="0"
     width="297mm"
     height="210mm"
     viewBox="0 0 297 210"
     preserveAspectRatio="xMidYMid meet">
   <title>Collation diagram quire 32</title>
   <defs>
      <filter id="f1" filterUnits="userSpaceOnUse">
         <feGaussianBlur in="SourceGraphic" stdDeviation="1"/>
      </filter>
   </defs>
   <desc>Collation diagram quire 32</desc>
   <svg x="20" y="20">
      <desc>Bifolium #1</desc>
      <g>
         <g class="leaf">
            <path stroke-linecap="round" d="M72,9 A54,54 0 0,0 19,63"/>
            <path d="M70,9 L72,9"/>
         </g>
         <g class="leaf">
            <path stroke-linecap="round" d="M72,117 A54,54 0 0,1 19,63"/>
            <path d="M70,117 L72,117"/>
         </g>
      </g>
      <desc>Bifolium #2</desc>
      <g>
         <g class="leaf">
            <path stroke-linecap="round" d="M72,15 A48,48 0 0,0 25,63"/>
            <path d="M70,15 L72,15"/>
         </g>
         <g class="leaf">
            <path stroke-linecap="round" d="M72,111 A48,48 0 0,1 25,63"/>
            <path d="M70,111 L72,111"/>
         </g>
      </g>
      <desc>Bifolium #3</desc>
      <g>
         <g class="leaf">
            <path stroke-linecap="round" d="M72,21 A42,42 0 0,0 31,63"/>
            <path d="M70,21 L72,21"/>
         </g>
         <g class="leaf">
            <path stroke-linecap="round" d="M72,105 A42,42 0 0,1 31,63"/>
            <path d="M70,105 L72,105"/>
         </g>
      </g>
      <desc>Bifolium #4</desc>
      <g>
         <g class="leaf">
            <path stroke-linecap="round" d="M72,27 A36,36 0 0,0 37,63"/>
            <path d="M70,27 L72,27"/>
         </g>
         <g class="leaf">
            <path stroke-linecap="round" d="M72,99 A36,36 0 0,1 37,63"/>
            <path d="M70,99 L72,99"/>
         </g>
      </g>
      <desc>Bifolium #5</desc>
      <g>
         <g class="leaf">
            <path stroke-linecap="round" d="M72,33 A30,30 0 0,0 43,63"/>
            <path d="M70,33 L72,33"/>
         </g>
         <g class="leaf">
            <path stroke-linecap="round" d="M72,93 A30,30 0 0,1 43,63"/>
            <path d="M70,93 L72,93"/>
         </g>
      </g>
      <desc>Bifolium #6</desc>
      <g>
         <g class="leaf">
            <path stroke-linecap="round" d="M72,39 A24,24 0 0,0 49,63"/>
            <path d="M70,39 L72,39"/>
         </g>
         <g class="leaf">
            <path stroke-linecap="round" d="M72,87 A24,24 0 0,1 49,63"/>
            <path d="M70,87 L72,87"/>
         </g>
      </g>
      <desc>Bifolium #7</desc>
      <g>
         <g class="leaf">
            <path stroke-linecap="round" d="M72,45 A18,18 0 0,0 55,63"/>
            <path d="M70,45 L72,45"/>
         </g>
         <g class="leaf">
            <path stroke-linecap="round" d="M72,81 A18,18 0 0,1 55,63"/>
            <path d="M70,81 L72,81"/>
         </g>
      </g>
      <desc>Bifolium #8</desc>
      <g>
         <g class="leaf">
            <path stroke-linecap="round" d="M72,51 A12,12 0 0,0 61,63"/>
            <path d="M70,51 L72,51"/>
         </g>
         <g class="leaf">
            <path stroke-linecap="round" d="M72,75 A12,12 0 0,1 61,63"/>
            <path d="M70,75 L72,75"/>
         </g>
      </g>
      <desc>Bifolium #9</desc>
      <g>
         <g class="leaf">
            <path stroke-linecap="round" d="M72,57 A6,6 0 0,0 67,63"/>
            <path d="M70,57 L72,57"/>
         </g>
         <g class="leaf">
            <path stroke-linecap="round" d="M72,69 A6,6 0 0,1 67,63"/>
            <path d="M70,69 L72,69"/>
         </g>
      </g>
   </svg>
</svg>
