<?xml version="1.0" encoding="utf-8" standalone="no"?>
<?xml-stylesheet href="../../CSS/style.css" type="text/css"?>
<!--SVG file generated on: 8 September 2013 at 21:04:21 using SAXON version EE 9.5.0.2-->
<!DOCTYPE svg
  PUBLIC "-//W3C//DTD SVG 1.1//EN" "http://www.w3.org/Graphics/SVG/1.1/DTD/svg11.dtd">
<svg xmlns="http://www.w3.org/2000/svg"
     version="1.1"
     x="0"
     y="0"
     width="297mm"
     height="210mm"
     viewBox="0 0 297 210"
     preserveAspectRatio="xMidYMid meet">
   <title>Collation diagram quire 15</title>
   <defs>
      <filter id="f1" filterUnits="userSpaceOnUse">
         <feGaussianBlur in="SourceGraphic" stdDeviation="1"/>
      </filter>
   </defs>
   <desc>Collation diagram quire 15</desc>
   <svg x="20" y="20">
      <desc>Bifolium #1</desc>
      <g>
         <g class="leaf">
            <path stroke-linecap="round" d="M42,9 A24,24 0 0,0 19,33"/>
            <path d="M70,9 L42,9"/>
         </g>
         <g class="leaf">
            <path stroke-linecap="round" d="M42,57 A24,24 0 0,1 19,33"/>
            <path d="M70,57 L42,57"/>
         </g>
      </g>
      <desc>Bifolium #2</desc>
      <g>
         <g class="leaf">
            <path stroke-linecap="round" d="M42,15 A18,18 0 0,0 25,33"/>
            <path d="M70,15 L42,15"/>
         </g>
         <g class="leaf">
            <path stroke-linecap="round" d="M42,51 A18,18 0 0,1 25,33"/>
            <path d="M70,51 L42,51"/>
         </g>
      </g>
      <desc>Bifolium #3</desc>
      <g>
         <g class="leaf">
            <path stroke-linecap="round" d="M42,21 A12,12 0 0,0 31,33"/>
            <path d="M70,21 L42,21"/>
         </g>
         <g class="leaf">
            <path stroke-linecap="round" d="M42,45 A12,12 0 0,1 31,33"/>
            <path d="M70,45 L42,45"/>
         </g>
      </g>
      <desc>Bifolium #4</desc>
      <g>
         <g class="leaf">
            <path stroke-linecap="round" d="M42,27 A6,6 0 0,0 37,33"/>
            <path d="M70,27 L42,27"/>
         </g>
         <g class="leaf">
            <path stroke-linecap="round" d="M42,39 A6,6 0 0,1 37,33"/>
            <path d="M70,39 L42,39"/>
         </g>
      </g>
   </svg>
</svg>
