<?xml version="1.0" encoding="utf-8" standalone="no"?>
<?xml-stylesheet href="../../CSS/style.css" type="text/css"?>
<!--SVG file generated on: 8 September 2013 at 21:04:27 using SAXON version EE 9.5.0.2-->
<!DOCTYPE svg
  PUBLIC "-//W3C//DTD SVG 1.1//EN" "http://www.w3.org/Graphics/SVG/1.1/DTD/svg11.dtd">
<svg xmlns="http://www.w3.org/2000/svg"
     version="1.1"
     x="0"
     y="0"
     width="297mm"
     height="210mm"
     viewBox="0 0 297 210"
     preserveAspectRatio="xMidYMid meet">
   <title>Collation diagram quire 63</title>
   <defs>
      <filter id="f1" filterUnits="userSpaceOnUse">
         <feGaussianBlur in="SourceGraphic" stdDeviation="1"/>
      </filter>
   </defs>
   <desc>Collation diagram quire 63</desc>
   <svg x="20" y="20">
      <desc>Bifolium #1</desc>
      <g>
         <g class="leaf">
            <path stroke-linecap="round" d="M36,9 A18,18 0 0,0 19,27"/>
            <path d="M70,9 L36,9"/>
         </g>
         <g class="leaf">
            <path stroke-linecap="round" d="M36,45 A18,18 0 0,1 19,27"/>
            <path d="M70,45 L36,45"/>
         </g>
      </g>
      <desc>Bifolium #2</desc>
      <g>
         <g class="leaf">
            <path stroke-linecap="round" d="M36,15 A12,12 0 0,0 25,27"/>
            <path d="M70,15 L36,15"/>
         </g>
         <g class="leaf">
            <path stroke-linecap="round" d="M36,39 A12,12 0 0,1 25,27"/>
            <path d="M70,39 L36,39"/>
         </g>
      </g>
      <desc>Bifolium #3</desc>
      <g>
         <g class="leaf">
            <path stroke-linecap="round" d="M36,21 A6,6 0 0,0 31,27"/>
            <path d="M70,21 L36,21"/>
         </g>
         <g class="leaf">
            <path stroke-linecap="round" d="M36,33 A6,6 0 0,1 31,27"/>
            <path d="M70,33 L36,33"/>
         </g>
      </g>
   </svg>
</svg>
